<svg width="500" height="500" viewBox="0 0 500 500" fill="none" xmlns="http://www.w3.org/2000/svg">
<path fill-rule="evenodd" clip-rule="evenodd" d="M261.488 179.195L278.495 231.989H278.789C291.64 271.766 304.221 310.704 304.292 310.891C311.438 329.915 292.432 341.88 288.225 341.88C288.225 342.206 272.263 343.51 272.263 343.51V378.372H301.086C315.289 378.372 326.202 375.298 333.826 369.149C341.449 363 347.35 353.459 351.527 340.526L414.813 147.796H368.557L336.424 261.963L299.953 147.796H299.681L255.536 10H196.636L124.578 231.989H172.826L188.49 179.195H261.488ZM224.97 52.8709H223.499L200.853 131.989H247.91L224.97 52.8709ZM403.655 445.349H158.073V490H403.655V445.349Z" fill="#4B58CF"/>
<path fill-rule="evenodd" clip-rule="evenodd" d="M221.91 179.195L238.917 231.989H239.211C252.061 271.766 264.643 310.704 264.713 310.891C271.86 329.915 252.854 341.88 248.647 341.88C248.647 342.206 232.685 343.51 232.685 343.51V378.372H261.508C275.711 378.372 286.624 375.298 294.248 369.149C301.871 363 307.772 353.459 311.949 340.526L375.235 147.796H328.979L296.846 261.963L260.375 147.796H260.103L215.958 10H157.058L85 231.989H133.248L148.912 179.195H221.91ZM185.391 52.8709H183.921L161.274 131.989H208.332L185.391 52.8709ZM364.077 445.349H118.495V490H364.077V445.349Z" fill="#C8D0FF"/>
</svg>
